{"title":"Cherry Tree Lane 2010 DvDRip.XviD.Ac3.Feel-Free","uid":5866271,"size":1028166068,"categoryP":"video","categoryS":"movies","magnet":"?xt=urn:btih:91bacc067810c0a498fb17695245aa515e5c1850&amp;dn=Cherry+Tree+Lane+2010+DvDRip.XviD.Ac3.Feel-Free&amp;tr=udp%3A%2F%2Ftracker.openbittorrent.com%3A80&amp;tr=udp%3A%2F%2Fopen.demonii.com%3A1337&amp;tr=udp%3A%2F%2Ftracker.coppersurfer.tk%3A6969&amp;tr=udp%3A%2F%2Fexodus.desync.com%3A6969","seeders":3,"leechers":0,"uploader":"neon","files":-1,"time":1286226509,"description":"Prosperous professional couple Mike and Christine are settling in for a standard evening of wine, TV and low-level marital hostility when a ring on their doorbell changes everything. Turns out their son Sebastian is in a little trouble with some local boys, who are quite prepared to camp out and wait for him to get home... The resulting culture-clash chamber drama is raw, revealing and nerve-splittingly tense.\n\nGenre:Crime | Thriller\nLanguage:English\n &lt;a href=&quot; http://www.imdb.com/title/tt1468829/&quot; rel=&quot;nofollow&quot; target=&quot;_NEW&quot;&gt; http://www.imdb.com/title/tt1468829/&lt;/a&gt;\nSource:DVDR\n\nGeneral\nComplete name :Cherry.Tree.Lane.2010.DvDRip.XviD.Ac3.Feel-Free\nFormat : AVI\nFormat/Info : Audio Video Interleave\nFile size : 980 MiB\nDuration : 1h 14mn\nOverall bit rate : 1 846 Kbps\nVideo #0\nMuxing mode : Packed bitstream\nCodec ID : XVID\nCodec ID/Hint : XviD\nDuration : 1h 14mn\nBit rate : 1 255 Kbps\nWidth : 720 pixels\nHeight : 304 pixels\nDisplay aspect ratio : 2.35:1\nFrame rate : 25.000 fps\nResolution : 24 bits\nColorimetry : 4:2:0\nScan type : Progressive\nBits/(Pixel*Frame) : 0.229\nStream size : 667 MiB (68%)\nWriting library : XviD 1.2.1 (UTC 2008-12-04)\nAudio #1\nID : 1\nFormat : AC-3\nFormat/Info : Audio Coding 3\nCodec ID : 2000\nDuration : 1h 14mn\nBit rate mode : Constant\nBit rate : 448 Kbps\nChannel(s) : 6 channels\nChannel positions : Front: L C R, Surround: L R, LFE\nSampling rate : 48.0 KHz\nStream size : 238 MiB (24%)\nAlignment : Split accross interleaves\nInterleave, duration : 40 ms (1.00 video frame)\nInterleave, preload duration : 500 ms\nAudio #2\nID : 2\nFormat : MPEG Audio\nFormat version : Version 1\nFormat profile : Layer 3\nCodec ID : 55\nCodec ID/Hint : MP3\nDuration : 1h 14mn\nBit rate mode : Constant\nBit rate : 128 Kbps\nChannel(s) : 2 channels\nSampling rate : 48.0 KHz\nResolution : 16 bits\nStream size : 68.0 MiB (7%)\nAlignment : Split accross interleaves\nInterleave, duration : 40 ms (1.00 video frame)\nInterleave, preload duration : 500 ms\nWriting library : LAME3.98","torrent":{"xt":"urn:btih:91bacc067810c0a498fb17695245aa515e5c1850","amp;dn":"Cherry+Tree+Lane+2010+DvDRip.XviD.Ac3.Feel-Free","amp;tr":["udp%3A%2F%2Ftracker.openbittorrent.com%3A80","udp%3A%2F%2Fopen.demonii.com%3A1337","udp%3A%2F%2Ftracker.coppersurfer.tk%3A6969","udp%3A%2F%2Fexodus.desync.com%3A6969"],"infoHash":"91bacc067810c0a498fb17695245aa515e5c1850","infoHashBuffer":{"type":"Buffer","data":[145,186,204,6,120,16,192,164,152,251,23,105,82,69,170,81,94,92,24,80]},"announce":[],"urlList":[]}}